# xmcd CD database file
#
# Track frame offsets:
#	150
#	21836
#	41905
#
# Disc length: 847 seconds
#
# Revision: 2
# Processed by: cddbd v1.5.2PL0 Copyright (c) Steve Scherf et al.
# Submitted via: CDex 1.70beta2
#
DISCID=20034d03
DTITLE=綾瀬はるか - 交差点days
DYEAR=2006
DGENRE=JPop
TTITLE0=交差点days
TTITLE1=なんとなく、晴れ
TTITLE2=交差点days (Instrumental)
EXTD=YEAR: 2006
EXTT0=
EXTT1=
EXTT2=
PLAYORDER=
